<?xml version="1.0" encoding="utf-8"?>
<!-- Generator: Adobe Illustrator 16.0.0, SVG Export Plug-In . SVG Version: 6.00 Build 0)  -->
<!DOCTYPE svg PUBLIC "-//W3C//DTD SVG 1.1//EN" "http://www.w3.org/Graphics/SVG/1.1/DTD/svg11.dtd">
<svg version="1.1" id="Layer_1" xmlns="http://www.w3.org/2000/svg" xmlns:xlink="http://www.w3.org/1999/xlink" x="0px" y="0px"
	 width="27.325px" height="27.326px" viewBox="0 0 27.325 27.326" enable-background="new 0 0 27.325 27.326" xml:space="preserve">
<path fill="#4C4C4C" d="M15.141,23.227v-8.725h2.931l0.438-3.401h-3.368V8.93c0-0.982,0.274-1.653,1.686-1.653l1.802-0.003V4.234
	C18.317,4.192,17.248,4.1,16.006,4.1c-2.597,0-4.376,1.586-4.376,4.496v2.505H8.696v3.401h2.934v8.725H15.141z"/>
<path fill="#4C4C4C" d="M13.662,0.405c7.322,0,13.259,5.936,13.259,13.258c0,7.322-5.937,13.258-13.259,13.258
	c-7.321,0-13.258-5.936-13.258-13.258C0.404,6.341,6.341,0.405,13.662,0.405 M13.662,0C6.129,0,0,6.129,0,13.663
	c0,7.534,6.129,13.663,13.662,13.663c7.534,0,13.663-6.129,13.663-13.663C27.325,6.129,21.196,0,13.662,0"/>
<g>
</g>
<g>
</g>
<g>
</g>
<g>
</g>
<g>
</g>
<g>
</g>
<g>
</g>
<g>
</g>
<g>
</g>
<g>
</g>
<g>
</g>
<g>
</g>
<g>
</g>
<g>
</g>
<g>
</g>
</svg>
