<?xml version="1.0" encoding="utf-8"?>
<!-- Generator: Adobe Illustrator 16.0.0, SVG Export Plug-In . SVG Version: 6.00 Build 0)  -->
<!DOCTYPE svg PUBLIC "-//W3C//DTD SVG 1.1//EN" "http://www.w3.org/Graphics/SVG/1.1/DTD/svg11.dtd">
<svg version="1.1"
	 id="svg2" xmlns:dc="http://purl.org/dc/elements/1.1/" xmlns:cc="http://creativecommons.org/ns#" xmlns:rdf="http://www.w3.org/1999/02/22-rdf-syntax-ns#" xmlns:svg="http://www.w3.org/2000/svg"
	 xmlns="http://www.w3.org/2000/svg" xmlns:xlink="http://www.w3.org/1999/xlink" x="0px" y="0px" width="245.238px"
	 height="56.143px" viewBox="10.927 62.517 245.238 56.143" enable-background="new 10.927 62.517 245.238 56.143"
	 xml:space="preserve">
<g id="g10" transform="matrix(1.25,0,0,-1.25,0,180)">
	<g id="g12" transform="scale(0.1,0.1)">
		<path id="path14" fill="#3594A6" d="M258.027,897.414c10.02,0,18.16,8.121,18.16,18.164c0,10.031-8.141,18.16-18.16,18.16
			s-18.164-8.129-18.164-18.16C239.863,905.535,248.008,897.414,258.027,897.414L258.027,897.414"/>
		<path id="path16" fill="#3594A6" d="M162.781,835.945c13.227,0.234,23.773,11.152,23.535,24.391
			c-0.219,13.242-11.145,23.785-24.375,23.555c-13.234-0.23-23.777-11.148-23.543-24.391
			C138.629,846.258,149.547,835.715,162.781,835.945L162.781,835.945"/>
		<path id="path18" fill="#3594A6" d="M111.004,751.473c10.016,0,18.148,8.129,18.148,18.164s-8.133,18.168-18.148,18.168
			c-10.031,0-18.172-8.133-18.172-18.168S100.973,751.473,111.004,751.473L111.004,751.473"/>
		<path id="path20" fill="#3594A6" d="M110.973,683.383c-13.227-0.227-23.781-11.133-23.551-24.367
			c0.227-13.25,11.152-23.789,24.391-23.555c13.227,0.227,23.777,11.133,23.555,24.383
			C135.133,673.086,124.203,683.625,110.973,683.383L110.973,683.383"/>
		<path id="path22" fill="#3594A6" d="M163.547,587.953c-10.02,0-18.164-8.125-18.164-18.156s8.145-18.156,18.164-18.156
			s18.156,8.125,18.156,18.156S173.566,587.953,163.547,587.953L163.547,587.953"/>
		<path id="path24" fill="#3594A6" d="M259.195,538.672c-13.238-0.234-23.789-11.156-23.551-24.398
			c0.227-13.242,11.145-23.781,24.387-23.539c13.23,0.227,23.77,11.133,23.547,24.375
			C283.348,528.352,272.426,538.891,259.195,538.672L259.195,538.672"/>
		<path id="path26" fill="#3594A6" d="M363.113,533.5c-10.031,0-18.152-8.133-18.152-18.156c0-10.031,8.121-18.156,18.152-18.156
			s18.164,8.125,18.164,18.156C381.277,525.367,373.145,533.5,363.113,533.5L363.113,533.5"/>
		<path id="path28" fill="#3594A6" d="M458.199,594.797c-13.246-0.234-23.797-11.148-23.57-24.391
			c0.23-13.25,11.156-23.781,24.402-23.562c13.23,0.234,23.77,11.148,23.535,24.406
			C482.344,584.484,471.418,595.023,458.199,594.797L458.199,594.797"/>
		<path id="path30" fill="#3594A6" d="M510.027,678.969c-10.031,0-18.164-8.133-18.164-18.164s8.133-18.148,18.164-18.148
			s18.164,8.117,18.164,18.148S520.059,678.969,510.027,678.969L510.027,678.969"/>
		<path id="path32" fill="#3594A6" d="M510.062,747.391c13.23,0.227,23.777,11.133,23.547,24.375
			c-0.227,13.238-11.16,23.785-24.379,23.551c-13.238-0.238-23.789-11.148-23.555-24.391
			C485.91,757.688,496.824,747.156,510.062,747.391L510.062,747.391"/>
		<path id="path34" fill="#3594A6" d="M457.535,842.832c10.023,0,18.164,8.133,18.164,18.16c0,10.035-8.141,18.16-18.164,18.16
			c-10.031,0-18.152-8.125-18.152-18.16C439.383,850.965,447.504,842.832,457.535,842.832L457.535,842.832"/>
		<path id="path36" fill="#3594A6" d="M361.969,891.93c13.234,0.23,23.777,11.145,23.543,24.383
			c-0.223,13.25-11.148,23.785-24.387,23.551c-13.227-0.23-23.77-11.141-23.547-24.387
			C337.82,902.238,348.73,891.699,361.969,891.93L361.969,891.93"/>
		<path id="path38" fill="#3594A6" d="M363.184,858.398c0-16.629,13.48-30.102,30.102-30.102c16.613,0,30.102,13.473,30.102,30.102
			c0,16.621-13.488,30.094-30.102,30.094C376.664,888.492,363.184,875.02,363.184,858.398L363.184,858.398"/>
		<path id="path40" fill="#3594A6" d="M310.578,854.824c13.289,0,24.074,10.785,24.074,24.082c0,13.293-10.785,24.074-24.074,24.074
			c-13.293,0-24.074-10.781-24.074-24.074C286.504,865.609,297.285,854.824,310.578,854.824L310.578,854.824"/>
		<path id="path42" fill="#3594A6" d="M229.895,828.637c16.621,0,30.102,13.473,30.102,30.102c0,16.621-13.48,30.102-30.102,30.102
			s-30.09-13.48-30.09-30.102C199.805,842.109,213.273,828.637,229.895,828.637L229.895,828.637"/>
		<path id="path44" fill="#3594A6" d="M145.992,798.754c0-13.297,10.781-24.074,24.082-24.074c13.293,0,24.082,10.777,24.082,24.074
			c0,13.309-10.789,24.082-24.082,24.082C156.773,822.836,145.992,812.062,145.992,798.754L145.992,798.754"/>
		<path id="path46" fill="#3594A6" d="M146.785,745.367c-16.625,0-30.102-13.477-30.102-30.109
			c0-16.617,13.477-30.086,30.102-30.086c16.613,0,30.102,13.469,30.102,30.086C176.887,731.891,163.398,745.367,146.785,745.367
			L146.785,745.367"/>
		<path id="path48" fill="#3594A6" d="M170.359,659.547c-13.297,0-24.09-10.789-24.09-24.078c0-13.297,10.793-24.078,24.09-24.078
			c13.293,0,24.074,10.781,24.074,24.078C194.434,648.758,183.652,659.547,170.359,659.547L170.359,659.547"/>
		<path id="path50" fill="#3594A6" d="M259.805,575.547c0,16.625-13.469,30.094-30.098,30.094
			c-16.617,0-30.086-13.469-30.086-30.094c0-16.617,13.469-30.094,30.086-30.094C246.336,545.453,259.805,558.93,259.805,575.547
			L259.805,575.547"/>
		<path id="path52" fill="#3594A6" d="M310.355,576.344c-13.301,0-24.074-10.781-24.074-24.078s10.773-24.078,24.074-24.078
			c13.297,0,24.082,10.781,24.082,24.078S323.652,576.344,310.355,576.344L310.355,576.344"/>
		<path id="path54" fill="#3594A6" d="M393.277,605.641c-16.621,0-30.094-13.469-30.094-30.086
			c0-16.625,13.473-30.102,30.094-30.102s30.09,13.477,30.09,30.102C423.367,592.172,409.898,605.641,393.277,605.641
			L393.277,605.641"/>
		<path id="path56" fill="#3594A6" d="M452.914,611.109c13.293,0,24.094,10.773,24.094,24.078c0,13.297-10.801,24.07-24.094,24.07
			c-13.301,0-24.074-10.773-24.074-24.07C428.84,621.883,439.613,611.109,452.914,611.109L452.914,611.109"/>
		<path id="path58" fill="#3594A6" d="M443.547,715.547c0-16.617,13.477-30.094,30.109-30.094c16.613,0,30.094,13.477,30.094,30.094
			c0,16.629-13.48,30.105-30.094,30.105C457.023,745.652,443.547,732.176,443.547,715.547L443.547,715.547"/>
		<path id="path60" fill="#3594A6" d="M452.914,774.68c13.301,0,24.094,10.777,24.094,24.078c0,13.305-10.793,24.082-24.094,24.082
			s-24.074-10.777-24.074-24.082C428.84,785.457,439.613,774.68,452.914,774.68L452.914,774.68"/>
		<path id="path62" fill="#4F4C4C" d="M766.836,806.559c-0.176,4.586-0.84,8.906-1.98,12.969c-1.156,4.059-2.914,7.676-5.293,10.848
			c-2.383,3.18-5.52,5.695-9.395,7.547c-3.891,1.848-8.562,2.777-14.031,2.777c-10.234,0-18.172-3.176-23.816-9.527
			c-5.648-6.352-9.355-14.555-11.113-24.613H766.836z M700.145,791.211c0.172-6.707,1.012-13.102,2.516-19.191
			c1.496-6.086,3.84-11.469,7.012-16.141c3.176-4.68,7.277-8.383,12.305-11.117c5.031-2.734,11.07-4.102,18.129-4.102
			c4.41,0,8.469,0.438,12.176,1.32c3.703,0.887,7.016,1.898,9.926,3.047c2.91,1.145,5.465,2.379,7.676,3.703
			c2.203,1.324,4.008,2.426,5.426,3.312l7.938-15.09c-1.586-1.055-3.668-2.34-6.219-3.832c-2.559-1.504-5.648-2.918-9.262-4.238
			c-3.621-1.324-7.766-2.465-12.438-3.438c-4.68-0.969-9.93-1.457-15.75-1.457c-10.059,0-18.836,1.766-26.332,5.293
			c-7.504,3.527-13.766,8.336-18.793,14.426c-5.023,6.082-8.777,13.23-11.246,21.434c-2.477,8.203-3.703,16.977-3.703,26.336
			c0,9.348,1.41,18.035,4.23,26.066c2.824,8.023,6.75,14.992,11.777,20.902c5.031,5.914,11.027,10.543,18,13.898
			c6.969,3.348,14.688,5.027,23.152,5.027c8.473,0,16.016-1.586,22.633-4.766c6.617-3.172,12.043-7.672,16.273-13.496
			c4.234-5.816,7.277-12.793,9.133-20.906c1.852-8.113,2.332-17.113,1.453-26.992H700.145"/>
		<path id="path64" fill="#4F4C4C" d="M917.688,771.285c0-6.871-1.395-13.215-4.18-19.023c-2.789-5.816-6.672-10.84-11.648-15.066
			c-4.973-4.227-11.035-7.484-18.176-9.773c-7.152-2.289-14.957-3.434-23.426-3.434c-6.707,0-12.793,0.676-18.262,2.012
			c-5.469,1.344-10.277,2.961-14.422,4.84c-4.145,1.875-7.676,3.848-10.586,5.906c-2.91,2.062-5.164,3.898-6.75,5.5l10.586,14.824
			c1.062-0.887,2.648-2.211,4.762-3.969c2.117-1.77,4.809-3.488,8.074-5.164s7.191-3.176,11.777-4.5s9.793-1.984,15.613-1.984
			c5.469,0,10.41,0.836,14.824,2.512c4.402,1.672,8.203,3.871,11.375,6.602c3.18,2.73,5.602,5.902,7.281,9.516
			c1.676,3.609,2.516,7.355,2.516,11.227c0,5.289-1.152,9.914-3.441,13.879c-2.297,3.957-5.34,7.484-9.133,10.566
			c-3.793,3.078-8.117,5.895-12.969,8.449c-4.855,2.559-9.832,5.07-14.949,7.535c-5.293,2.641-10.41,5.414-15.355,8.32
			c-4.938,2.91-9.305,6.297-13.098,10.176c-3.793,3.871-6.836,8.32-9.133,13.344c-2.293,5.02-3.438,11.051-3.438,18.098
			c0,7.219,1.426,13.613,4.289,19.16c2.859,5.551,6.699,10.258,11.512,14.137c4.816,3.871,10.309,6.781,16.484,8.719
			c6.176,1.934,12.613,2.906,19.324,2.906c6.52,0,12.348-0.539,17.465-1.613s9.57-2.332,13.363-3.762
			c3.793-1.438,6.969-3.004,9.531-4.703c2.555-1.707,4.543-3.086,5.953-4.16l-10.055-15.402c-3.004,2.469-7.504,5.113-13.5,7.941
			c-6.004,2.816-13.672,4.234-23.023,4.234c-8.824,0-16.145-2.422-21.969-7.27c-5.82-4.848-8.73-11.316-8.73-19.422
			c0-4.406,0.832-8.23,2.496-11.488c1.66-3.262,3.941-6.211,6.836-8.859c2.895-2.641,6.227-5.02,9.996-7.129
			c3.766-2.117,7.84-4.234,12.223-6.348c5.785-2.816,11.66-5.766,17.621-8.848c5.957-3.086,11.301-6.781,16.035-11.098
			c4.73-4.316,8.633-9.469,11.703-15.457C916.152,787.227,917.688,779.918,917.688,771.285"/>
		<path id="path66" fill="#4F4C4C" d="M1038.898,736.688c-1.238-1.059-2.957-2.293-5.16-3.703c-2.207-1.414-4.988-2.824-8.34-4.234
			c-3.348-1.41-7.188-2.555-11.508-3.438c-4.332-0.883-9.312-1.324-14.953-1.324c-9.359,0-17.648,1.852-24.879,5.559
			c-7.238,3.707-13.277,8.598-18.129,14.688c-4.855,6.086-8.52,13.188-10.984,21.301c-2.473,8.117-3.707,16.496-3.707,25.145
			c0,10.938,1.59,20.551,4.77,28.848c3.172,8.289,7.406,15.219,12.699,20.777c5.293,5.555,11.469,9.789,18.523,12.703
			c7.055,2.91,14.555,4.363,22.496,4.363c10.414,0,18.742-1.504,25.012-4.5c6.262-3,10.891-5.73,13.891-8.203l-9.258-14.555
			c-3.352,2.469-7.32,4.852-11.91,7.148c-4.59,2.289-10.582,3.438-17.996,3.438c-6.531,0-12.176-1.281-16.941-3.84
			c-4.758-2.559-8.641-6.043-11.641-10.453s-5.254-9.66-6.75-15.746c-1.5-6.086-2.246-12.57-2.246-19.449
			c0-6.707,0.746-13.102,2.246-19.191c1.496-6.086,3.793-11.469,6.883-16.141c3.082-4.68,7.051-8.383,11.91-11.117
			c4.848-2.734,10.535-4.102,17.07-4.102c4.055,0,7.754,0.398,11.113,1.191c3.352,0.793,6.352,1.762,9,2.91
			c2.641,1.145,4.891,2.34,6.75,3.574c1.852,1.23,3.211,2.199,4.102,2.91L1038.898,736.688"/>
		<path id="path68" fill="#4F4C4C" d="M1146.602,727.164v86.805c0,7.941-1.633,14.246-4.891,18.922
			c-3.273,4.672-9.133,7.016-17.609,7.016c-4.945,0-9.477-1.059-13.617-3.176c-4.156-2.117-7.859-4.5-11.109-7.145
			c-3.281-2.648-5.914-5.254-7.945-7.809c-2.039-2.559-3.398-4.281-4.109-5.16v-89.453H1068v190.551h19.32v-81.777
			c1.414,1.758,3.305,3.875,5.695,6.348c2.375,2.473,5.281,4.805,8.719,7.016c3.453,2.203,7.422,4.102,11.914,5.688
			c4.5,1.59,9.477,2.383,14.961,2.383c6.703,0,12.391-1.059,17.07-3.176c4.672-2.117,8.508-4.941,11.508-8.469
			c3.016-3.531,5.203-7.719,6.625-12.574c1.398-4.852,2.109-10.012,2.109-15.477v-90.512H1146.602"/>
		<path id="path70" fill="#4F4C4C" d="M1295.078,790.414c0,6.883-0.844,13.363-2.516,19.453c-1.688,6.086-4.242,11.422-7.688,16.012
			c-3.422,4.586-7.625,8.203-12.562,10.852c-4.938,2.645-10.766,3.969-17.469,3.969c-6.523,0-12.164-1.324-16.938-3.969
			c-4.766-2.648-8.594-6.223-11.508-10.719s-5.07-9.75-6.492-15.746c-1.406-6.004-2.117-12.438-2.117-19.324
			c0-6.879,0.75-13.363,2.25-19.449s3.852-11.426,7.023-16.012c3.172-4.59,7.188-8.207,12.039-10.852
			c4.852-2.648,10.547-3.969,17.07-3.969c6.703,0,12.477,1.32,17.344,3.969c4.844,2.645,8.859,6.223,12.031,10.719
			c3.188,4.5,5.555,9.75,7.156,15.746C1294.281,777.09,1295.078,783.535,1295.078,790.414z M1315.719,790.941
			c0-7.406-1.109-15.082-3.312-23.02c-2.203-7.941-5.688-15.133-10.453-21.57c-4.766-6.445-10.938-11.777-18.516-16.016
			c-7.594-4.23-16.781-6.348-27.531-6.348c-10.766,0-19.859,2.074-27.258,6.215c-7.414,4.148-13.445,9.441-18.133,15.883
			c-4.672,6.438-8.078,13.582-10.188,21.438c-2.117,7.848-3.18,15.48-3.18,22.891c0,7.414,1.008,15.082,3.055,23.023
			c2.031,7.945,5.328,15.125,9.922,21.574c4.586,6.434,10.531,11.773,17.859,16.008c7.312,4.234,16.375,6.352,27.141,6.352
			c10.75,0,19.977-2.074,27.641-6.219c7.688-4.145,13.938-9.438,18.797-15.879c4.844-6.441,8.422-13.59,10.719-21.434
			C1314.57,805.984,1315.719,798.355,1315.719,790.941"/>
		<path id="path72" fill="#4F4C4C" d="M1348.539,727.164h19.312v190.551h-19.312V727.164z"/>
		<path id="path74" fill="#4F4C4C" d="M1475.039,787.504h-5.57c-6.867,0-13.18-0.488-18.906-1.453
			c-5.742-0.973-10.688-2.609-14.82-4.898c-4.164-2.297-7.422-5.293-9.805-9c-2.391-3.707-3.562-8.203-3.562-13.496
			c0-3.352,0.617-6.176,1.844-8.469c1.234-2.297,2.781-4.148,4.633-5.559s3.883-2.426,6.086-3.043
			c2.211-0.617,4.281-0.926,6.219-0.926c7.242,0,13.672,1.676,19.328,5.027c5.641,3.352,10.5,7.766,14.555,13.234V787.504z
			 M1477.953,727.164c-0.352,1.762-0.703,4.277-1.062,7.543c-0.359,3.262-0.625,5.863-0.797,7.809
			c-4.234-5.293-9.656-9.707-16.273-13.234s-13.898-5.293-21.836-5.293c-10.586,0-19.273,3.086-26.078,9.266
			c-6.781,6.172-10.172,14.461-10.172,24.875c0,8.469,2.062,15.48,6.219,21.035c4.141,5.562,9.531,10.016,16.141,13.371
			c6.609,3.348,13.938,5.727,21.953,7.145c8.031,1.41,15.844,2.117,23.422,2.117h5.57v11.824c0,9.461-2.031,16.207-6.086,20.234
			c-4.078,4.031-10.492,6.051-19.328,6.051c-5.812,0-11.375-1.02-16.664-3.047c-5.289-2.031-10.773-5.598-16.422-10.715
			l-10.305,13.496c12.516,11.82,27.422,17.73,44.727,17.73c13.914,0,24.648-3.395,32.148-10.188s11.25-17.426,11.25-31.891v-59.281
			c0-6.355,0.266-12.004,0.797-16.941c0.523-4.938,1.234-8.91,2.109-11.906H1477.953"/>
		<path id="path76" fill="#4F4C4C" d="M1598.359,836.199c-0.703,0.355-1.898,0.793-3.57,1.324c-1.68,0.527-4.188,0.793-7.539,0.793
			c-4.766,0-9.016-1.148-12.711-3.438c-3.695-2.297-6.883-4.941-9.523-7.941c-2.656-3-4.727-5.914-6.227-8.734
			s-2.414-4.766-2.773-5.82v-85.219h-19.312v127.031h19.312v-19.848c1.234,2.117,2.875,4.5,4.906,7.145
			c2.016,2.648,4.453,5.164,7.258,7.547c2.836,2.379,6.062,4.363,9.672,5.949c3.609,1.59,7.633,2.383,12.039,2.383
			c3.875,0,6.844-0.355,8.875-1.059c2.016-0.707,3.484-1.234,4.359-1.586L1598.359,836.199"/>
		<path id="path78" fill="#4F4C4C" d="M1702.64,761.305c0-11.648-4.07-20.82-12.18-27.527c-8.117-6.703-19.148-10.055-33.086-10.055
			c-9.172,0-17.164,1.32-23.945,3.969c-6.805,2.645-12.219,5.379-16.281,8.207l8.477,14.82c2.469-1.77,6.391-3.934,11.773-6.484
			c5.367-2.559,11.953-3.84,19.711-3.84c7.953,0,14.25,1.586,18.93,4.766c4.664,3.176,7.008,7.672,7.008,13.496
			c0,5.82-2.344,10.363-7.008,13.629c-4.68,3.262-11.688,6.926-21.039,10.984c-4.938,2.117-9.531,4.324-13.766,6.617
			c-4.25,2.293-7.945,4.938-11.109,7.941c-3.188,2.996-5.656,6.484-7.414,10.453c-1.773,3.969-2.648,8.688-2.648,14.156
			c0,9.883,3.531,18.172,10.578,24.875c7.062,6.707,16.938,10.059,29.648,10.059c5.305,0,10-0.484,14.164-1.453
			c4.141-0.973,7.812-2.117,10.977-3.441c3.172-1.324,5.781-2.648,7.805-3.969c2.031-1.324,3.586-2.43,4.641-3.309l-9.531-14.027
			c-2.305,1.762-5.781,3.793-10.453,6.09c-4.68,2.289-10.625,3.438-17.875,3.438c-6.695,0-11.891-1.551-15.609-4.629
			c-3.703-3.09-5.555-7.371-5.555-12.84c0-6,2.289-10.543,6.883-13.625c4.578-3.09,10.406-6.133,17.469-9.133
			c5.117-2.117,10.062-4.367,14.812-6.746c4.766-2.383,8.953-5.078,12.578-8.078c3.609-2.996,6.516-6.484,8.734-10.453
			C1701.515,771.227,1702.64,766.598,1702.64,761.305"/>
		<path id="path80" fill="#4F4C4C" d="M1813.789,727.164v86.805c0,7.941-1.641,14.246-4.898,18.922
			c-3.266,4.672-9.125,7.016-17.602,7.016c-4.938,0-9.492-1.059-13.633-3.176s-7.859-4.5-11.117-7.145
			c-3.258-2.648-5.914-5.254-7.938-7.809c-2.031-2.559-3.391-4.281-4.102-5.16v-89.453h-19.32v190.551h19.32v-81.777
			c1.406,1.758,3.312,3.875,5.703,6.348c2.375,2.473,5.289,4.805,8.727,7.016c3.43,2.203,7.398,4.102,11.914,5.688
			c4.484,1.59,9.469,2.383,14.938,2.383c6.703,0,12.398-1.059,17.07-3.176c4.68-2.117,8.523-4.941,11.523-8.469
			c2.984-3.531,5.195-7.719,6.609-12.574c1.406-4.852,2.125-10.012,2.125-15.477v-90.512H1813.789"/>
		<path id="path82" fill="#4F4C4C" d="M1877.031,727.164v127.031h19.594V727.164H1877.031z M1886.828,906.598
			c4.047,0,7.453-1.367,10.188-4.102c2.734-2.738,4.094-6.133,4.094-10.191s-1.359-7.457-4.094-10.188
			c-2.734-2.738-6.141-4.098-10.188-4.098c-4.062,0-7.453,1.359-10.188,4.098c-2.734,2.73-4.102,6.129-4.102,10.188
			s1.367,7.453,4.102,10.191C1879.375,905.23,1882.765,906.598,1886.828,906.598"/>
		<path id="path84" fill="#4F4C4C" d="M2028.679,790.414c0,7.059-0.711,13.629-2.117,19.719c-1.414,6.09-3.531,11.332-6.352,15.746
			c-2.836,4.41-6.445,7.848-10.852,10.32c-4.422,2.469-9.609,3.707-15.609,3.707c-4.406,0-8.438-0.707-12.047-2.117
			c-3.609-1.418-6.844-3.094-9.656-5.031c-2.828-1.941-5.172-3.879-7.016-5.82c-1.852-1.941-3.211-3.535-4.102-4.766v-69.867
			c3-2.648,6.836-5.25,11.508-7.809s10.984-3.836,18.938-3.836c6.164,0,11.531,1.234,16.125,3.703
			c4.594,2.473,8.484,5.957,11.648,10.457c3.172,4.496,5.562,9.789,7.148,15.879C2027.89,776.785,2028.679,783.355,2028.679,790.414
			z M2049.32,790.941c0-10.051-1.367-19.184-4.109-27.387c-2.727-8.207-6.609-15.219-11.641-21.039
			c-5.031-5.828-10.93-10.367-17.727-13.633c-6.805-3.262-14.344-4.895-22.625-4.895c-9,0-16.008,1.324-21.039,3.973
			c-5.031,2.645-8.781,5.023-11.25,7.141v-65.898h-19.328v184.992h19.328v-13.762c3.352,4.059,8.031,7.895,14.031,11.516
			c6,3.613,13.578,5.422,22.75,5.422c15.531,0,28.008-5.777,37.445-17.332C2044.601,828.48,2049.32,812.113,2049.32,790.941"/>
		<path id="path86" fill="#64666B" d="M762.938,562.617c0-11.672-2.918-20.938-8.754-27.773c-5.84-6.836-14.98-10.266-27.422-10.266
			c-6.508,0-12.105,0.906-16.797,2.727c-4.688,1.82-8.539,4.352-11.551,7.617c-3.02,3.242-5.223,7.195-6.605,11.836
			c-1.387,4.648-2.082,9.742-2.082,15.289v59.867h11.195v-58.523c0-9.969,2.105-17.359,6.32-22.141
			c4.207-4.805,10.816-7.188,19.809-7.188c8.613,0,15,2.539,19.164,7.617c4.168,5.078,6.246,11.641,6.246,19.695v60.539h10.477
			V562.617"/>
		<path id="path88" fill="#64666B" d="M828.113,526.312v47.078c0,4.305-0.887,7.719-2.652,10.266
			c-1.773,2.531-4.953,3.805-9.547,3.805c-3.926,0-7.613-1.273-11.055-3.805c-3.449-2.547-6.414-5.484-8.902-8.828v-48.516H785.48
			v68.906h10.477v-9.906c3.062,3.922,6.484,6.836,10.266,8.75c3.777,1.914,7.82,2.875,12.133,2.875c3.633,0,6.719-0.578,9.258-1.719
			c2.531-1.156,4.613-2.688,6.242-4.609c1.629-1.906,2.824-4.188,3.59-6.812c0.762-2.625,1.148-5.438,1.148-8.398v-49.086H828.113"
			/>
		<path id="path90" fill="#64666B" d="M862.422,526.312v68.906h10.625v-68.906H862.422z M867.734,623.633
			c2.203,0,4.043-0.742,5.527-2.227s2.227-3.32,2.227-5.531c0-2.188-0.742-4.039-2.227-5.523s-3.324-2.227-5.527-2.227
			s-4.043,0.742-5.527,2.227s-2.227,3.336-2.227,5.523c0,2.211,0.742,4.047,2.227,5.531S865.531,623.633,867.734,623.633"/>
		<path id="path92" fill="#64666B" d="M919.414,540.078l19.238,55.141h10.766l-25.41-68.906h-9.762l-26.273,68.906h11.484
			l19.668-55.141H919.414"/>
		<path id="path94" fill="#64666B" d="M1005.121,569.375c-0.102,2.484-0.461,4.828-1.082,7.031
			c-0.617,2.203-1.578,4.156-2.867,5.875c-1.293,1.734-2.992,3.094-5.098,4.109c-2.105,0.992-4.645,1.5-7.605,1.5
			c-5.555,0-9.859-1.719-12.922-5.172c-3.066-3.438-5.074-7.891-6.031-13.344H1005.121z M968.941,561.047
			c0.098-3.641,0.551-7.102,1.367-10.406c0.809-3.305,2.078-6.227,3.801-8.766c1.719-2.539,3.949-4.539,6.676-6.023
			c2.727-1.492,6.008-2.227,9.836-2.227c2.387,0,4.594,0.242,6.602,0.711c2.012,0.492,3.809,1.039,5.387,1.664
			c1.57,0.625,2.961,1.281,4.16,2.008c1.191,0.711,2.18,1.305,2.941,1.797l4.309-8.18c-0.859-0.594-1.988-1.273-3.379-2.094
			c-1.379-0.812-3.062-1.578-5.02-2.297c-1.961-0.711-4.211-1.336-6.75-1.859c-2.531-0.531-5.379-0.797-8.539-0.797
			c-5.453,0-10.219,0.953-14.281,2.875c-4.074,1.906-7.465,4.516-10.195,7.82c-2.727,3.305-4.762,7.188-6.098,11.633
			c-1.344,4.438-2.016,9.203-2.016,14.281s0.77,9.789,2.297,14.141c1.531,4.359,3.66,8.125,6.391,11.344
			c2.727,3.203,5.977,5.711,9.762,7.531c3.781,1.812,7.969,2.734,12.559,2.734c4.594,0,8.688-0.859,12.281-2.578
			c3.578-1.734,6.527-4.172,8.82-7.328c2.297-3.164,3.949-6.938,4.957-11.344c1-4.398,1.262-9.281,0.793-14.641H968.941"/>
		<path id="path96" fill="#64666B" d="M1067.559,585.453c-0.379,0.188-1.027,0.422-1.93,0.719c-0.91,0.281-2.277,0.43-4.098,0.43
			c-2.582,0-4.871-0.625-6.891-1.875c-2.012-1.242-3.73-2.68-5.16-4.297c-1.441-1.641-2.57-3.211-3.379-4.742
			c-0.812-1.531-1.312-2.578-1.512-3.156v-46.219h-10.469v68.906h10.469v-10.781c0.672,1.148,1.559,2.453,2.66,3.883
			c1.102,1.438,2.422,2.789,3.949,4.086c1.531,1.297,3.281,2.375,5.242,3.234c1.957,0.859,4.137,1.297,6.527,1.297
			c2.102,0,3.711-0.203,4.812-0.578c1.098-0.383,1.891-0.672,2.367-0.859L1067.559,585.453"/>
		<path id="path98" fill="#64666B" d="M1124.125,544.828c0-6.32-2.219-11.297-6.609-14.938s-10.391-5.453-17.945-5.453
			c-4.977,0-9.305,0.719-12.992,2.156c-3.68,1.438-6.629,2.922-8.828,4.438l4.59,8.047c1.34-0.953,3.473-2.125,6.395-3.516
			c2.914-1.383,6.477-2.086,10.695-2.086c4.305,0,7.719,0.859,10.258,2.586c2.547,1.734,3.812,4.172,3.812,7.328
			s-1.266,5.609-3.812,7.391c-2.539,1.766-6.336,3.75-11.406,5.953c-2.672,1.156-5.172,2.344-7.461,3.594
			c-2.305,1.234-4.305,2.68-6.031,4.297c-1.73,1.641-3.07,3.516-4.02,5.68c-0.961,2.156-1.441,4.711-1.441,7.68
			c0,5.359,1.922,9.859,5.742,13.5c3.828,3.633,9.195,5.453,16.078,5.453c2.867,0,5.43-0.266,7.68-0.797
			c2.242-0.531,4.242-1.141,5.961-1.859c1.727-0.727,3.133-1.438,4.227-2.156c1.109-0.719,1.945-1.328,2.523-1.797l-5.164-7.609
			c-1.25,0.953-3.141,2.062-5.672,3.305c-2.547,1.242-5.773,1.867-9.688,1.867c-3.656,0-6.469-0.844-8.477-2.516
			s-3.023-3.984-3.023-6.953c0-3.266,1.25-5.727,3.75-7.406c2.469-1.672,5.641-3.32,9.469-4.938
			c2.781-1.156,5.445-2.375,8.031-3.672c2.594-1.297,4.859-2.75,6.828-4.375c1.953-1.625,3.531-3.516,4.727-5.672
			S1124.125,547.695,1124.125,544.828"/>
		<path id="path100" fill="#64666B" d="M1143.07,526.312v68.906h10.617v-68.906H1143.07z M1148.375,623.633
			c2.219,0,4.047-0.742,5.531-2.227s2.219-3.32,2.219-5.531c0-2.188-0.734-4.039-2.219-5.523s-3.312-2.227-5.531-2.227
			c-2.203,0-4.031,0.742-5.523,2.227c-1.477,1.484-2.227,3.336-2.227,5.523c0,2.211,0.75,4.047,2.227,5.531
			C1144.344,622.891,1146.172,623.633,1148.375,623.633"/>
		<path id="path102" fill="#64666B" d="M1212.984,528.75c-1.062-0.688-2.805-1.547-5.25-2.594s-5.523-1.578-9.25-1.578
			c-5.75,0-10.047,1.609-12.914,4.812s-4.32,7.68-4.32,13.422v44.078h-11.344v8.328h11.344v19.664h10.484v-19.664h17.367v-8.328
			h-17.367v-43.078c0-3.438,0.562-6,1.727-7.68c1.148-1.664,3.25-2.508,6.305-2.508c2.203,0,4.172,0.375,5.891,1.148
			c1.719,0.758,2.883,1.383,3.445,1.867L1212.984,528.75"/>
		<path id="path104" fill="#64666B" d="M1254.18,517.109c-1.148-3.141-2.445-6.188-3.883-9.109c-1.422-2.922-3.203-5.5-5.312-7.75
			c-2.094-2.242-4.633-4.016-7.609-5.312c-2.969-1.297-6.555-1.938-10.75-1.938c-1.836,0-3.219,0.062-4.172,0.219
			c-0.969,0.141-1.773,0.305-2.438,0.492l1.438,8.773c0.469-0.102,1.047-0.203,1.703-0.297c0.688-0.094,1.883-0.141,3.609-0.141
			c4.875,0,8.5,1.312,10.914,3.953c2.383,2.625,4.531,6.516,6.445,11.695l3.305,9.039l-25.977,68.484h11.766l19.672-54.984h0.281
			l19.094,54.984h11.195L1254.18,517.109"/>
		<path id="path106" fill="#64666B" d="M1376.906,560.609c0,3.734-0.445,7.25-1.344,10.562c-0.914,3.297-2.297,6.188-4.172,8.672
			c-1.859,2.5-4.141,4.453-6.82,5.898c-2.68,1.43-5.836,2.148-9.469,2.148c-3.539,0-6.602-0.719-9.18-2.148
			c-2.602-1.445-4.672-3.383-6.25-5.82c-1.578-2.438-2.766-5.297-3.523-8.531c-0.773-3.266-1.148-6.766-1.148-10.492
			s0.406-7.242,1.219-10.547s2.078-6.203,3.797-8.695c1.734-2.477,3.914-4.453,6.547-5.875c2.625-1.445,5.719-2.156,9.258-2.156
			c3.633,0,6.773,0.711,9.391,2.156c2.641,1.422,4.82,3.367,6.555,5.812c1.719,2.438,3,5.281,3.859,8.547
			C1376.484,553.391,1376.906,556.875,1376.906,560.609z M1388.125,560.898c0-4.023-0.609-8.18-1.797-12.477
			c-1.203-4.32-3.094-8.219-5.68-11.703c-2.578-3.5-5.93-6.398-10.039-8.688c-4.125-2.312-9.109-3.453-14.938-3.453
			c-5.844,0-10.773,1.125-14.781,3.375c-4.015,2.242-7.297,5.109-9.844,8.609c-2.531,3.5-4.367,7.375-5.516,11.641
			c-1.156,4.25-1.719,8.391-1.719,12.406s0.547,8.188,1.641,12.5c1.094,4.297,2.898,8.203,5.391,11.695
			c2.477,3.492,5.719,6.383,9.687,8.68c3.953,2.297,8.867,3.453,14.703,3.453s10.836-1.141,15-3.383
			c4.172-2.242,7.562-5.117,10.195-8.617c2.641-3.492,4.57-7.359,5.82-11.617S1388.125,564.922,1388.125,560.898"/>
		<path id="path108" fill="#64666B" d="M1442.094,620.484c-0.484,0.18-1.484,0.516-3.016,1c-1.539,0.469-3.539,0.711-6.031,0.711
			c-4.586,0-8.141-1.477-10.625-4.445s-3.734-7.32-3.734-13.062v-9.469h17.523v-8.328h-17.523v-60.578h-10.477v60.578h-11.477v8.328
			h11.477v10.188c0,7.938,2.18,14.266,6.539,18.953c4.352,4.688,10.539,7.031,18.594,7.031c3.336,0,5.953-0.234,7.805-0.727
			c1.883-0.469,3.102-0.859,3.672-1.148L1442.094,620.484"/>
		<path id="path110" fill="#64666B" d="M1554.789,534.203c-2.5-2.297-6.25-4.477-11.273-6.531
			c-5.031-2.062-10.891-3.094-17.594-3.094c-7.461,0-14.078,1.398-19.883,4.172c-5.789,2.773-10.664,6.453-14.633,11.055
			c-3.984,4.586-7,9.898-9.055,15.93c-2.062,6.023-3.086,12.25-3.086,18.656c0,6.508,1.055,12.734,3.156,18.672
			c2.109,5.922,5.18,11.141,9.203,15.648c4,4.492,8.914,8.102,14.703,10.836c5.797,2.719,12.359,4.086,19.742,4.086
			c6.117,0,11.242-0.648,15.359-1.977c4.117-1.305,7.945-3.078,11.477-5.312l-5.594-8.5c-2.781,1.914-5.906,3.445-9.406,4.594
			s-7.531,1.719-12.125,1.719c-5.742,0-10.797-1.094-15.156-3.297c-4.344-2.188-7.953-5.109-10.836-8.734
			c-2.867-3.625-5.039-7.844-6.531-12.609c-1.477-4.789-2.219-9.75-2.219-14.906c0-5.25,0.719-10.312,2.148-15.195
			c1.438-4.867,3.625-9.188,6.547-12.969c2.906-3.773,6.578-6.773,10.969-9.023c4.406-2.25,9.562-3.359,15.508-3.359
			c5.18,0,9.664,0.766,13.5,2.281c3.828,1.539,7.133,3.5,9.898,5.891L1554.789,534.203"/>
		<path id="path112" fill="#64666B" d="M1606.039,559.031h-3.023c-3.734,0-7.156-0.266-10.266-0.789s-5.797-1.406-8.039-2.656
			c-2.25-1.242-4.031-2.867-5.32-4.883c-1.281-2.016-1.93-4.438-1.93-7.312c0-1.828,0.328-3.352,1.008-4.602
			c0.672-1.242,1.5-2.242,2.516-3.008c1-0.766,2.109-1.312,3.297-1.656c1.188-0.336,2.32-0.5,3.375-0.5
			c3.922,0,7.414,0.906,10.469,2.719c3.062,1.82,5.703,4.219,7.914,7.188V559.031z M1607.609,526.312
			c-0.203,0.953-0.375,2.312-0.578,4.078c-0.188,1.781-0.328,3.188-0.43,4.234c-2.289-2.867-5.227-5.266-8.836-7.172
			c-3.586-1.922-7.531-2.875-11.836-2.875c-5.742,0-10.461,1.672-14.133,5.031c-3.688,3.344-5.531,7.844-5.531,13.5
			c0,4.586,1.109,8.391,3.375,11.406c2.234,3.016,5.156,5.422,8.758,7.242c3.586,1.82,7.562,3.117,11.914,3.883
			c4.359,0.766,8.586,1.141,12.703,1.141h3.023v6.422c0,5.141-1.117,8.789-3.32,10.977c-2.188,2.188-5.688,3.281-10.469,3.281
			c-3.172,0-6.18-0.547-9.047-1.664c-2.875-1.094-5.844-3.023-8.906-5.797l-5.594,7.312c6.797,6.422,14.875,9.625,24.266,9.625
			c7.562,0,13.375-1.844,17.438-5.531s6.094-9.453,6.094-17.305v-32.148c0-3.445,0.148-6.5,0.43-9.188
			c0.305-2.688,0.68-4.836,1.164-6.453H1607.609"/>
		<path id="path114" fill="#64666B" d="M1639.765,526.312h10.469v103.359h-10.469V526.312z"/>
		<path id="path116" fill="#64666B" d="M1674.929,526.312v68.906h10.633v-68.906H1674.929z M1680.242,623.633
			c2.195,0,4.047-0.742,5.523-2.227c1.5-1.484,2.234-3.32,2.234-5.531c0-2.188-0.734-4.039-2.234-5.523
			c-1.477-1.484-3.328-2.227-5.523-2.227s-4.039,0.742-5.523,2.227s-2.227,3.336-2.227,5.523c0,2.211,0.742,4.047,2.227,5.531
			S1678.047,623.633,1680.242,623.633"/>
		<path id="path118" fill="#64666B" d="M1746.429,620.484c-0.492,0.18-1.492,0.516-3.023,1c-1.531,0.469-3.547,0.711-6.031,0.711
			c-4.594,0-8.141-1.477-10.609-4.445c-2.5-2.969-3.734-7.32-3.734-13.062v-9.469h17.508v-8.328h-17.508v-60.578h-10.492v60.578
			h-11.492v8.328h11.492v10.188c0,7.938,2.195,14.266,6.539,18.953c4.352,4.688,10.547,7.031,18.594,7.031
			c3.344,0,5.953-0.234,7.812-0.727c1.875-0.469,3.086-0.859,3.664-1.148L1746.429,620.484"/>
		<path id="path120" fill="#64666B" d="M1801.844,560.609c0,3.734-0.453,7.25-1.375,10.562c-0.906,3.297-2.297,6.188-4.156,8.672
			c-1.875,2.5-4.141,4.453-6.828,5.898c-2.664,1.43-5.836,2.148-9.469,2.148c-3.547,0-6.594-0.719-9.188-2.148
			c-2.586-1.445-4.672-3.383-6.234-5.82c-1.578-2.438-2.75-5.297-3.531-8.531c-0.773-3.266-1.141-6.766-1.141-10.492
			s0.398-7.242,1.203-10.547c0.828-3.305,2.094-6.203,3.812-8.695c1.719-2.477,3.914-4.453,6.531-5.875
			c2.633-1.445,5.719-2.156,9.266-2.156c3.641,0,6.766,0.711,9.406,2.156c2.625,1.422,4.797,3.367,6.531,5.812
			c1.727,2.438,3.016,5.281,3.875,8.547C1801.406,553.391,1801.844,556.875,1801.844,560.609L1801.844,560.609z M1813.031,560.898
			c0-4.023-0.594-8.18-1.797-12.477c-1.195-4.32-3.086-8.219-5.664-11.703c-2.586-3.5-5.945-6.398-10.039-8.688
			c-4.125-2.312-9.102-3.453-14.938-3.453c-5.844,0-10.773,1.125-14.797,3.375c-4.016,2.242-7.289,5.109-9.812,8.609
			c-2.547,3.5-4.391,7.375-5.531,11.641c-1.156,4.25-1.734,8.391-1.734,12.406s0.562,8.188,1.656,12.5
			c1.086,4.297,2.883,8.203,5.383,11.695c2.477,3.492,5.711,6.383,9.695,8.68c3.953,2.297,8.867,3.453,14.703,3.453
			c5.844,0,10.844-1.141,15-3.383c4.172-2.242,7.555-5.117,10.195-8.617c2.633-3.492,4.57-7.359,5.82-11.617
			C1812.406,569.062,1813.031,564.922,1813.031,560.898"/>
		<path id="path122" fill="#64666B" d="M1863.984,585.453c-0.375,0.188-1.016,0.422-1.938,0.719c-0.898,0.281-2.258,0.43-4.078,0.43
			c-2.594,0-4.875-0.625-6.898-1.875c-2.008-1.242-3.727-2.68-5.164-4.297c-1.438-1.641-2.562-3.211-3.367-4.742
			c-0.82-1.531-1.328-2.578-1.508-3.156v-46.219h-10.484v68.906h10.484v-10.781c0.672,1.148,1.547,2.453,2.648,3.883
			c1.109,1.438,2.414,2.789,3.945,4.086s3.281,2.375,5.25,3.234c1.945,0.859,4.141,1.297,6.516,1.297
			c2.109,0,3.719-0.203,4.82-0.578c1.102-0.383,1.883-0.672,2.367-0.859L1863.984,585.453"/>
		<path id="path124" fill="#64666B" d="M1922.711,526.312v47.078c0,4.305-0.891,7.719-2.648,10.266
			c-1.781,2.531-4.961,3.805-9.555,3.805c-3.93,0-7.617-1.273-11.055-3.805c-3.445-2.547-6.406-5.484-8.906-8.828v-48.516h-10.469
			v68.906h10.469v-9.906c3.062,3.922,6.484,6.836,10.273,8.75c3.773,1.914,7.805,2.875,12.133,2.875
			c3.625,0,6.719-0.578,9.258-1.719c2.539-1.156,4.609-2.688,6.25-4.609c1.617-1.906,2.805-4.188,3.578-6.812
			c0.758-2.625,1.141-5.438,1.141-8.398v-49.086H1922.711"/>
		<path id="path126" fill="#64666B" d="M1957.015,526.312v68.906h10.625v-68.906H1957.015z M1962.32,623.633
			c2.211,0,4.055-0.742,5.531-2.227c1.492-1.484,2.227-3.32,2.227-5.531c0-2.188-0.734-4.039-2.227-5.523
			c-1.477-1.484-3.32-2.227-5.531-2.227c-2.195,0-4.039,0.742-5.523,2.227s-2.227,3.336-2.227,5.523
			c0,2.211,0.742,4.047,2.227,5.531S1960.125,623.633,1962.32,623.633"/>
		<path id="path128" fill="#64666B" d="M2026.359,559.031h-3.016c-3.734,0-7.156-0.266-10.266-0.789
			c-3.117-0.523-5.789-1.406-8.039-2.656c-2.25-1.242-4.023-2.867-5.305-4.883c-1.297-2.016-1.945-4.438-1.945-7.312
			c0-1.828,0.336-3.352,1-4.602c0.672-1.242,1.5-2.242,2.523-3.008c0.984-0.766,2.094-1.312,3.297-1.656
			c1.188-0.336,2.312-0.5,3.375-0.5c3.914,0,7.406,0.906,10.477,2.719c3.055,1.82,5.688,4.219,7.898,7.188V559.031z
			 M2027.929,526.312c-0.195,0.953-0.383,2.312-0.57,4.078c-0.188,1.781-0.344,3.188-0.43,4.234
			c-2.305-2.867-5.242-5.266-8.82-7.172c-3.594-1.922-7.539-2.875-11.859-2.875c-5.734,0-10.453,1.672-14.125,5.031
			c-3.688,3.344-5.531,7.844-5.531,13.5c0,4.586,1.117,8.391,3.367,11.406s5.18,5.422,8.758,7.242s7.562,3.117,11.906,3.883
			c4.359,0.766,8.594,1.141,12.719,1.141h3.016v6.422c0,5.141-1.109,8.789-3.312,10.977c-2.195,2.188-5.688,3.281-10.469,3.281
			c-3.172,0-6.172-0.547-9.039-1.664c-2.883-1.094-5.836-3.023-8.914-5.797l-5.609,7.312c6.805,6.422,14.891,9.625,24.273,9.625
			c7.562,0,13.367-1.844,17.445-5.531c4.062-3.688,6.109-9.453,6.109-17.305v-32.148c0-3.445,0.125-6.5,0.422-9.188
			s0.664-4.836,1.156-6.453H2027.929"/>
	</g>
</g>
</svg>
