<?xml version="1.0" encoding="utf-8"?>
<!-- Generator: Adobe Illustrator 16.0.0, SVG Export Plug-In . SVG Version: 6.00 Build 0)  -->
<!DOCTYPE svg PUBLIC "-//W3C//DTD SVG 1.1//EN" "http://www.w3.org/Graphics/SVG/1.1/DTD/svg11.dtd">
<svg version="1.1" id="Layer_1" xmlns="http://www.w3.org/2000/svg" xmlns:xlink="http://www.w3.org/1999/xlink" x="0px" y="0px"
	 width="33.736px" height="33.736px" viewBox="0 0 33.736 33.736" enable-background="new 0 0 33.736 33.736" xml:space="preserve">
<path fill="#FFFFFF" d="M18.693,28.675V17.903h3.617l0.541-4.199h-4.158v-2.681c0-1.213,0.34-2.041,2.08-2.041l2.226-0.003V5.228
	c-0.385-0.052-1.704-0.166-3.237-0.166c-3.206,0-5.402,1.957-5.402,5.55v3.093h-3.621v4.199h3.621v10.771H18.693z"/>
<path fill="#EAE9E9" d="M16.868,0.5c9.04,0,16.368,7.328,16.368,16.368c0,9.039-7.328,16.368-16.368,16.368S0.5,25.907,0.5,16.868
	C0.5,7.828,7.828,0.5,16.868,0.5 M16.868,0C7.567,0,0,7.567,0,16.868c0,9.302,7.567,16.868,16.868,16.868
	s16.868-7.566,16.868-16.868C33.736,7.567,26.169,0,16.868,0"/>
<g>
</g>
<g>
</g>
<g>
</g>
<g>
</g>
<g>
</g>
<g>
</g>
<g>
</g>
<g>
</g>
<g>
</g>
<g>
</g>
<g>
</g>
<g>
</g>
<g>
</g>
<g>
</g>
<g>
</g>
</svg>
