<?xml version="1.0" encoding="utf-8"?>
<!-- Generator: Adobe Illustrator 16.0.0, SVG Export Plug-In . SVG Version: 6.00 Build 0)  -->
<!DOCTYPE svg PUBLIC "-//W3C//DTD SVG 1.1//EN" "http://www.w3.org/Graphics/SVG/1.1/DTD/svg11.dtd">
<svg version="1.1" id="Layer_1" xmlns="http://www.w3.org/2000/svg" xmlns:xlink="http://www.w3.org/1999/xlink" x="0px" y="0px"
	 width="132.977px" height="29.722px" viewBox="0 0 132.977 29.722" enable-background="new 0 0 132.977 29.722"
	 xml:space="preserve">
<path fill="#008092" d="M11.29,2.81c0.663,0,1.202-0.537,1.202-1.202c0-0.664-0.539-1.202-1.202-1.202
	c-0.663,0-1.202,0.538-1.202,1.202C10.088,2.272,10.627,2.81,11.29,2.81"/>
<path fill="#008092" d="M4.987,6.877C5.862,6.862,6.56,6.139,6.544,5.263C6.53,4.387,5.807,3.689,4.931,3.704
	C4.056,3.72,3.358,4.442,3.373,5.318C3.389,6.195,4.111,6.892,4.987,6.877"/>
<path fill="#008092" d="M1.561,12.467c0.663,0,1.201-0.538,1.201-1.202s-0.538-1.202-1.201-1.202c-0.664,0-1.203,0.538-1.203,1.202
	S0.896,12.467,1.561,12.467"/>
<path fill="#008092" d="M1.559,16.973C0.684,16.988-0.016,17.709,0,18.586c0.015,0.877,0.738,1.573,1.614,1.558
	c0.875-0.015,1.573-0.736,1.558-1.613C3.157,17.655,2.435,16.958,1.559,16.973"/>
<path fill="#008092" d="M5.038,23.289c-0.663,0-1.202,0.538-1.202,1.2c0,0.664,0.539,1.201,1.202,1.201
	c0.663,0,1.202-0.537,1.202-1.201C6.239,23.827,5.7,23.289,5.038,23.289"/>
<path fill="#008092" d="M11.367,26.549c-0.876,0.016-1.574,0.738-1.559,1.615c0.016,0.875,0.738,1.573,1.614,1.557
	c0.876-0.015,1.573-0.736,1.559-1.613C12.965,27.233,12.243,26.535,11.367,26.549"/>
<path fill="#008092" d="M18.244,26.891c-0.664,0-1.201,0.539-1.201,1.202c0,0.664,0.537,1.201,1.201,1.201s1.202-0.537,1.202-1.201
	C19.446,27.43,18.908,26.891,18.244,26.891"/>
<path fill="#008092" d="M24.536,22.835c-0.877,0.015-1.575,0.737-1.56,1.614c0.016,0.876,0.739,1.574,1.615,1.559
	c0.875-0.016,1.573-0.738,1.558-1.615C26.134,23.518,25.411,22.821,24.536,22.835"/>
<path fill="#008092" d="M27.966,17.265c-0.664,0-1.202,0.538-1.202,1.202s0.538,1.201,1.202,1.201s1.202-0.537,1.202-1.201
	S28.63,17.265,27.966,17.265"/>
<path fill="#008092" d="M27.968,12.737c0.875-0.015,1.574-0.737,1.558-1.613c-0.015-0.876-0.738-1.574-1.613-1.559
	c-0.876,0.016-1.574,0.738-1.559,1.615C26.37,12.055,27.092,12.752,27.968,12.737"/>
<path fill="#008092" d="M24.492,6.421c0.663,0,1.202-0.538,1.202-1.202c0-0.664-0.539-1.202-1.202-1.202
	c-0.664,0-1.201,0.538-1.201,1.202C23.292,5.883,23.828,6.421,24.492,6.421"/>
<path fill="#008092" d="M18.168,3.172c0.876-0.015,1.574-0.738,1.558-1.614C19.711,0.683,18.988-0.016,18.112,0
	c-0.875,0.015-1.573,0.737-1.558,1.614C16.57,2.491,17.292,3.188,18.168,3.172"/>
<path fill="#008092" d="M18.249,5.391c0,1.101,0.892,1.992,1.992,1.992c1.099,0,1.992-0.892,1.992-1.992
	c0-1.1-0.893-1.992-1.992-1.992C19.141,3.399,18.249,4.292,18.249,5.391"/>
<path fill="#008092" d="M14.767,5.627c0.879,0,1.593-0.714,1.593-1.594c0-0.879-0.714-1.593-1.593-1.593
	c-0.88,0-1.593,0.714-1.593,1.593C13.174,4.914,13.887,5.627,14.767,5.627"/>
<path fill="#008092" d="M9.428,7.361c1.1,0,1.992-0.891,1.992-1.992c0-1.1-0.892-1.992-1.992-1.992c-1.1,0-1.991,0.892-1.991,1.992
	C7.437,6.47,8.328,7.361,9.428,7.361"/>
<path fill="#008092" d="M3.875,9.338c0,0.88,0.714,1.593,1.594,1.593c0.879,0,1.593-0.713,1.593-1.593
	c0-0.881-0.714-1.594-1.593-1.594C4.59,7.745,3.875,8.458,3.875,9.338"/>
<path fill="#008092" d="M3.928,12.871c-1.1,0-1.992,0.892-1.992,1.993c0,1.099,0.892,1.991,1.992,1.991
	c1.099,0,1.992-0.892,1.992-1.991C5.92,13.763,5.027,12.871,3.928,12.871"/>
<path fill="#008092" d="M5.488,18.551c-0.88,0-1.594,0.713-1.594,1.592c0,0.881,0.714,1.595,1.594,1.595
	c0.88,0,1.593-0.714,1.593-1.595C7.082,19.264,6.369,18.551,5.488,18.551"/>
<path fill="#008092" d="M11.407,24.109c0-1.1-0.891-1.991-1.992-1.991c-1.099,0-1.991,0.892-1.991,1.991s0.892,1.992,1.991,1.992
	C10.516,26.101,11.407,25.208,11.407,24.109"/>
<path fill="#008092" d="M14.752,24.056c-0.88,0-1.593,0.714-1.593,1.593c0,0.881,0.713,1.595,1.593,1.595s1.594-0.714,1.594-1.595
	C16.346,24.77,15.632,24.056,14.752,24.056"/>
<path fill="#008092" d="M20.24,22.118c-1.1,0-1.991,0.891-1.991,1.99c0,1.101,0.891,1.992,1.991,1.992
	c1.1,0,1.991-0.892,1.991-1.992C22.231,23.008,21.34,22.118,20.24,22.118"/>
<path fill="#008092" d="M24.187,21.756c0.88,0,1.594-0.713,1.594-1.594c0-0.88-0.714-1.593-1.594-1.593s-1.593,0.713-1.593,1.593
	C22.593,21.043,23.307,21.756,24.187,21.756"/>
<path fill="#008092" d="M23.566,14.844c0,1.1,0.892,1.992,1.993,1.992c1.099,0,1.991-0.893,1.991-1.992
	c0-1.1-0.892-1.992-1.991-1.992C24.458,12.852,23.566,13.744,23.566,14.844"/>
<path fill="#008092" d="M24.187,10.932c0.88,0,1.594-0.713,1.594-1.593c0-0.881-0.714-1.594-1.594-1.594s-1.593,0.713-1.593,1.594
	C22.593,10.219,23.307,10.932,24.187,10.932"/>
<g>
	<path fill="#333333" d="M40.618,15.818c0.035,2.085,1.366,2.942,2.908,2.942c1.104,0,1.769-0.191,2.347-0.438l0.263,1.104
		c-0.543,0.246-1.471,0.525-2.82,0.525c-2.61,0-4.169-1.717-4.169-4.274s1.506-4.572,3.977-4.572c2.768,0,3.503,2.435,3.503,3.994
		c0,0.315-0.035,0.561-0.053,0.718H40.618z M45.137,14.714c0.018-0.981-0.403-2.505-2.137-2.505c-1.559,0-2.242,1.437-2.365,2.505
		H45.137z"/>
	<path fill="#333333" d="M48.375,17.92c0.683,0.42,1.682,0.771,2.733,0.771c1.559,0,2.47-0.823,2.47-2.015
		c0-1.104-0.631-1.734-2.225-2.347c-1.927-0.683-3.118-1.682-3.118-3.346c0-1.839,1.524-3.206,3.819-3.206
		c1.208,0,2.084,0.28,2.61,0.578L54.244,9.6c-0.385-0.21-1.173-0.561-2.242-0.561c-1.611,0-2.225,0.963-2.225,1.769
		c0,1.104,0.718,1.646,2.347,2.277c1.997,0.771,3.013,1.734,3.013,3.468c0,1.822-1.349,3.398-4.134,3.398
		c-1.139,0-2.382-0.332-3.013-0.753L48.375,17.92z"/>
	<path fill="#333333" d="M63.211,19.461c-0.403,0.211-1.296,0.49-2.435,0.49c-2.558,0-4.222-1.734-4.222-4.326
		c0-2.61,1.787-4.502,4.555-4.502c0.911,0,1.716,0.228,2.137,0.438l-0.351,1.191c-0.368-0.21-0.946-0.403-1.787-0.403
		c-1.944,0-2.996,1.437-2.996,3.206c0,1.962,1.261,3.171,2.943,3.171c0.876,0,1.454-0.228,1.892-0.421L63.211,19.461z"/>
</g>
<g>
	<path fill="#333333" d="M65.551,7.34h1.542v5.29h0.035c0.245-0.438,0.63-0.823,1.104-1.086c0.455-0.263,0.999-0.438,1.576-0.438
		c1.139,0,2.961,0.701,2.961,3.626v5.045h-1.542v-4.87c0-1.367-0.508-2.522-1.962-2.522c-0.998,0-1.787,0.701-2.067,1.542
		c-0.087,0.21-0.105,0.438-0.105,0.735v5.115h-1.542V7.34z"/>
	<path fill="#333333" d="M82.943,15.468c0,3.135-2.172,4.501-4.222,4.501c-2.295,0-4.064-1.682-4.064-4.361
		c0-2.838,1.857-4.502,4.205-4.502C81.297,11.106,82.943,12.875,82.943,15.468z M76.217,15.555c0,1.857,1.068,3.258,2.575,3.258
		c1.471,0,2.574-1.383,2.574-3.293c0-1.436-0.718-3.258-2.539-3.258C77.005,12.262,76.217,13.944,76.217,15.555z"/>
</g>
<g>
	<path fill="#333333" d="M85.236,7.34h1.542v12.437h-1.542V7.34z"/>
	<path fill="#333333" d="M94.063,19.777l-0.123-1.068h-0.052c-0.474,0.665-1.384,1.261-2.593,1.261
		c-1.717,0-2.592-1.209-2.592-2.435c0-2.049,1.821-3.17,5.097-3.153v-0.175c0-0.701-0.192-1.962-1.927-1.962
		c-0.788,0-1.611,0.245-2.207,0.63l-0.351-1.016c0.7-0.455,1.717-0.753,2.785-0.753c2.593,0,3.224,1.769,3.224,3.468v3.17
		c0,0.736,0.035,1.454,0.14,2.032H94.063z M93.836,15.45c-1.682-0.035-3.591,0.263-3.591,1.91c0,0.998,0.666,1.471,1.453,1.471
		c1.104,0,1.805-0.7,2.051-1.418c0.052-0.158,0.087-0.334,0.087-0.491V15.45z"/>
	<path fill="#333333" d="M97.811,13.944c0-0.999-0.018-1.857-0.07-2.646h1.349l0.053,1.665h0.07
		c0.385-1.139,1.313-1.857,2.348-1.857c0.175,0,0.297,0.018,0.438,0.053v1.454c-0.158-0.035-0.315-0.052-0.525-0.052
		c-1.086,0-1.857,0.823-2.067,1.979c-0.034,0.21-0.069,0.456-0.069,0.718v4.52h-1.524V13.944z"/>
	<path fill="#333333" d="M103.327,18.2c0.455,0.299,1.262,0.613,2.032,0.613c1.121,0,1.646-0.561,1.646-1.261
		c0-0.735-0.438-1.139-1.577-1.559c-1.523-0.543-2.242-1.384-2.242-2.4c0-1.366,1.104-2.487,2.926-2.487
		c0.858,0,1.611,0.245,2.085,0.525l-0.386,1.121c-0.332-0.21-0.945-0.49-1.734-0.49c-0.91,0-1.418,0.525-1.418,1.156
		c0,0.701,0.508,1.016,1.611,1.437c1.471,0.561,2.225,1.296,2.225,2.558c0,1.488-1.156,2.539-3.171,2.539
		c-0.929,0-1.786-0.228-2.382-0.578L103.327,18.2z"/>
	<path fill="#333333" d="M110.473,7.34h1.542v5.29h0.035c0.244-0.438,0.63-0.823,1.104-1.086c0.455-0.263,0.998-0.438,1.576-0.438
		c1.139,0,2.96,0.701,2.96,3.626v5.045h-1.542v-4.87c0-1.367-0.508-2.522-1.961-2.522c-0.999,0-1.787,0.701-2.067,1.542
		c-0.087,0.21-0.104,0.438-0.104,0.735v5.115h-1.542V7.34z"/>
	<path fill="#333333" d="M121.909,8.917c0.018,0.525-0.368,0.946-0.98,0.946c-0.544,0-0.93-0.42-0.93-0.946
		c0-0.543,0.403-0.964,0.964-0.964C121.541,7.953,121.909,8.373,121.909,8.917z M120.192,19.777v-8.479h1.541v8.479H120.192z"/>
	<path fill="#333333" d="M124.29,14.066c0-1.086-0.035-1.962-0.07-2.768h1.385l0.07,1.454h0.035c0.63-1.033,1.629-1.646,3.012-1.646
		c2.051,0,3.592,1.734,3.592,4.309c0,3.048-1.857,4.554-3.854,4.554c-1.121,0-2.103-0.49-2.61-1.331h-0.035v4.606h-1.524V14.066z
		 M125.814,16.326c0,0.227,0.035,0.438,0.07,0.63c0.28,1.068,1.208,1.804,2.312,1.804c1.629,0,2.576-1.33,2.576-3.275
		c0-1.699-0.895-3.153-2.523-3.153c-1.051,0-2.031,0.753-2.33,1.91c-0.052,0.192-0.104,0.42-0.104,0.63V16.326z"/>
</g>
<g>
</g>
<g>
</g>
<g>
</g>
<g>
</g>
<g>
</g>
<g>
</g>
<g>
</g>
<g>
</g>
<g>
</g>
<g>
</g>
<g>
</g>
<g>
</g>
<g>
</g>
<g>
</g>
<g>
</g>
</svg>
