<?xml version="1.0" encoding="utf-8"?>
<!-- Generator: Adobe Illustrator 16.0.0, SVG Export Plug-In . SVG Version: 6.00 Build 0)  -->
<!DOCTYPE svg PUBLIC "-//W3C//DTD SVG 1.1//EN" "http://www.w3.org/Graphics/SVG/1.1/DTD/svg11.dtd">
<svg version="1.1" id="Layer_1" xmlns="http://www.w3.org/2000/svg" xmlns:xlink="http://www.w3.org/1999/xlink" x="0px" y="0px"
	 width="180.782px" height="41.503px" viewBox="0 0 180.782 41.503" enable-background="new 0 0 180.782 41.503"
	 xml:space="preserve">
<path fill="#FFFFFF" d="M15.452,4.645c0.908,0,1.645-0.736,1.645-1.646c0-0.908-0.737-1.645-1.645-1.645
	c-0.907,0-1.645,0.736-1.645,1.645C13.807,3.908,14.545,4.645,15.452,4.645"/>
<path fill="#FFFFFF" d="M6.826,10.212c1.198-0.021,2.153-1.011,2.131-2.209C8.938,6.804,7.948,5.849,6.75,5.869
	c-1.199,0.021-2.154,1.01-2.133,2.209C4.639,9.277,5.626,10.232,6.826,10.212"/>
<path fill="#FFFFFF" d="M2.136,17.862c0.907,0,1.644-0.736,1.644-1.646c0-0.908-0.737-1.645-1.644-1.645
	c-0.909,0-1.646,0.736-1.646,1.645C0.49,17.126,1.227,17.862,2.136,17.862"/>
<path fill="#FFFFFF" d="M2.133,24.029C0.936,24.049-0.021,25.037,0,26.236c0.021,1.201,1.01,2.153,2.209,2.133
	c1.198-0.021,2.154-1.008,2.133-2.208C4.321,24.962,3.332,24.007,2.133,24.029"/>
<path fill="#FFFFFF" d="M6.895,32.673c-0.907,0-1.645,0.735-1.645,1.644c0,0.909,0.738,1.645,1.645,1.645
	c0.908,0,1.645-0.735,1.645-1.645C8.54,33.408,7.803,32.673,6.895,32.673"/>
<path fill="#FFFFFF" d="M15.558,37.136c-1.199,0.021-2.155,1.01-2.133,2.21c0.021,1.198,1.01,2.153,2.209,2.131
	c1.198-0.02,2.153-1.008,2.132-2.208C17.746,38.069,16.756,37.116,15.558,37.136"/>
<path fill="#FFFFFF" d="M24.97,37.604c-0.909,0-1.644,0.737-1.644,1.646s0.735,1.644,1.644,1.644c0.908,0,1.645-0.735,1.645-1.644
	S25.877,37.604,24.97,37.604"/>
<path fill="#FFFFFF" d="M33.582,32.053c-1.2,0.021-2.155,1.009-2.135,2.209c0.021,1.199,1.011,2.154,2.21,2.133
	c1.198-0.021,2.153-1.009,2.132-2.21C35.769,32.987,34.778,32.032,33.582,32.053"/>
<path fill="#FFFFFF" d="M38.275,24.429c-0.909,0-1.645,0.736-1.645,1.646c0,0.907,0.736,1.644,1.645,1.644
	c0.908,0,1.645-0.736,1.645-1.644C39.92,25.165,39.184,24.429,38.275,24.429"/>
<path fill="#FFFFFF" d="M38.279,18.232c1.198-0.021,2.154-1.009,2.133-2.208s-1.011-2.154-2.208-2.134
	c-1.199,0.022-2.155,1.011-2.134,2.209C36.091,17.299,37.08,18.253,38.279,18.232"/>
<path fill="#FFFFFF" d="M33.521,9.588c0.908,0,1.645-0.736,1.645-1.645c0-0.909-0.737-1.646-1.645-1.646
	c-0.909,0-1.644,0.736-1.644,1.646C31.877,8.852,32.612,9.588,33.521,9.588"/>
<path fill="#FFFFFF" d="M24.866,5.142c1.199-0.021,2.154-1.011,2.132-2.209c-0.02-1.199-1.009-2.154-2.208-2.134
	c-1.198,0.021-2.153,1.01-2.133,2.209C22.679,4.207,23.667,5.162,24.866,5.142"/>
<path fill="#FFFFFF" d="M24.976,8.178c0,1.507,1.221,2.727,2.726,2.727c1.505,0,2.726-1.22,2.726-2.727
	c0-1.506-1.221-2.726-2.726-2.726C26.197,5.452,24.976,6.672,24.976,8.178"/>
<path fill="#FFFFFF" d="M20.211,8.502c1.204,0,2.18-0.978,2.18-2.182s-0.976-2.18-2.18-2.18s-2.18,0.976-2.18,2.18
	S19.007,8.502,20.211,8.502"/>
<path fill="#FFFFFF" d="M12.904,10.873c1.506,0,2.726-1.22,2.726-2.726s-1.22-2.727-2.726-2.727c-1.505,0-2.725,1.221-2.725,2.727
	S11.399,10.873,12.904,10.873"/>
<path fill="#FFFFFF" d="M5.305,13.58c0,1.204,0.977,2.18,2.181,2.18s2.181-0.976,2.181-2.18c0-1.205-0.977-2.181-2.181-2.181
	S5.305,12.375,5.305,13.58"/>
<path fill="#FFFFFF" d="M5.377,18.415c-1.506,0-2.726,1.221-2.726,2.728c0,1.505,1.22,2.725,2.726,2.725
	c1.505,0,2.726-1.22,2.726-2.725C8.103,19.636,6.882,18.415,5.377,18.415"/>
<path fill="#FFFFFF" d="M7.512,26.188c-1.205,0-2.182,0.977-2.182,2.18c0,1.205,0.977,2.182,2.182,2.182
	c1.204,0,2.18-0.977,2.18-2.182C9.692,27.165,8.716,26.188,7.512,26.188"/>
<path fill="#FFFFFF" d="M15.613,33.796c0-1.506-1.22-2.726-2.726-2.726c-1.505,0-2.725,1.22-2.725,2.726
	c0,1.505,1.22,2.726,2.725,2.726C14.393,36.521,15.613,35.301,15.613,33.796"/>
<path fill="#FFFFFF" d="M20.191,33.724c-1.205,0-2.18,0.977-2.18,2.182c0,1.202,0.975,2.18,2.18,2.18
	c1.205,0,2.181-0.978,2.181-2.18C22.372,34.7,21.396,33.724,20.191,33.724"/>
<path fill="#FFFFFF" d="M27.702,31.069c-1.505,0-2.725,1.221-2.725,2.726c0,1.506,1.22,2.726,2.725,2.726
	c1.506,0,2.725-1.22,2.725-2.726C30.426,32.29,29.208,31.069,27.702,31.069"/>
<path fill="#FFFFFF" d="M33.103,30.575c1.204,0,2.182-0.977,2.182-2.181c0-1.205-0.978-2.181-2.182-2.181
	c-1.205,0-2.18,0.976-2.18,2.181C30.923,29.599,31.898,30.575,33.103,30.575"/>
<path fill="#FFFFFF" d="M32.254,21.115c0,1.506,1.221,2.727,2.727,2.727c1.505,0,2.725-1.221,2.725-2.727
	c0-1.505-1.22-2.726-2.725-2.726C33.476,18.39,32.254,19.61,32.254,21.115"/>
<path fill="#FFFFFF" d="M33.103,15.761c1.205,0,2.182-0.977,2.182-2.182s-0.977-2.181-2.182-2.181c-1.205,0-2.18,0.976-2.18,2.181
	S31.898,15.761,33.103,15.761"/>
<g>
	<path fill="#FFFFFF" d="M55.591,14.645c0.048,2.853,1.87,4.027,3.979,4.027c1.51,0,2.421-0.264,3.212-0.599l0.359,1.51
		c-0.743,0.336-2.014,0.719-3.859,0.719c-3.572,0-5.705-2.349-5.705-5.849s2.062-6.257,5.441-6.257c3.788,0,4.794,3.332,4.794,5.466
		c0,0.432-0.048,0.767-0.072,0.982H55.591z M61.776,13.135c0.024-1.343-0.552-3.428-2.925-3.428c-2.133,0-3.068,1.966-3.236,3.428
		H61.776z"/>
	<path fill="#FFFFFF" d="M66.209,17.521c0.935,0.575,2.301,1.055,3.74,1.055c2.133,0,3.38-1.127,3.38-2.757
		c0-1.51-0.863-2.373-3.044-3.212c-2.637-0.935-4.267-2.302-4.267-4.579c0-2.517,2.085-4.387,5.226-4.387
		c1.654,0,2.853,0.384,3.572,0.791l-0.576,1.702c-0.527-0.287-1.606-0.767-3.068-0.767c-2.205,0-3.044,1.318-3.044,2.421
		c0,1.51,0.983,2.253,3.212,3.116c2.733,1.055,4.123,2.373,4.123,4.746c0,2.493-1.846,4.65-5.657,4.65
		c-1.558,0-3.26-0.455-4.123-1.03L66.209,17.521z"/>
	<path fill="#FFFFFF" d="M86.512,19.631c-0.551,0.288-1.774,0.671-3.332,0.671c-3.5,0-5.777-2.373-5.777-5.921
		c0-3.571,2.445-6.16,6.232-6.16c1.247,0,2.349,0.312,2.924,0.6l-0.479,1.63c-0.503-0.288-1.295-0.552-2.445-0.552
		c-2.661,0-4.099,1.966-4.099,4.387c0,2.685,1.726,4.339,4.027,4.339c1.198,0,1.989-0.312,2.589-0.575L86.512,19.631z"/>
	<path fill="#FFFFFF" d="M88.98,3.043h2.109v7.239h0.048c0.336-0.6,0.863-1.127,1.51-1.486c0.624-0.359,1.367-0.6,2.158-0.6
		c1.558,0,4.051,0.959,4.051,4.963v6.903h-2.109v-6.664c0-1.87-0.695-3.452-2.685-3.452c-1.367,0-2.445,0.959-2.829,2.109
		c-0.12,0.288-0.144,0.6-0.144,1.007v7H88.98V3.043z"/>
	<path fill="#FFFFFF" d="M112.783,14.165c0,4.291-2.973,6.161-5.777,6.161c-3.141,0-5.561-2.301-5.561-5.969
		c0-3.884,2.54-6.161,5.752-6.161C110.529,8.196,112.783,10.618,112.783,14.165z M103.578,14.285c0,2.541,1.463,4.459,3.523,4.459
		c2.014,0,3.523-1.894,3.523-4.507c0-1.966-0.982-4.459-3.475-4.459C104.656,9.778,103.578,12.08,103.578,14.285z"/>
	<path fill="#FFFFFF" d="M115.443,3.043h2.109v17.02h-2.109V3.043z"/>
	<path fill="#FFFFFF" d="M127.523,20.062l-0.168-1.462h-0.072c-0.646,0.91-1.893,1.726-3.547,1.726c-2.35,0-3.549-1.654-3.549-3.332
		c0-2.805,2.494-4.339,6.977-4.314v-0.24c0-0.959-0.264-2.685-2.637-2.685c-1.079,0-2.205,0.336-3.021,0.863l-0.479-1.391
		c0.959-0.623,2.35-1.031,3.811-1.031c3.549,0,4.412,2.422,4.412,4.747v4.339c0,1.007,0.047,1.989,0.191,2.78H127.523z
		 M127.211,14.142c-2.302-0.048-4.914,0.359-4.914,2.613c0,1.366,0.911,2.013,1.989,2.013c1.51,0,2.469-0.958,2.805-1.941
		c0.072-0.216,0.12-0.455,0.12-0.671V14.142z"/>
	<path fill="#FFFFFF" d="M132.652,12.08c0-1.366-0.023-2.541-0.096-3.62h1.846l0.072,2.277h0.096
		c0.527-1.558,1.797-2.541,3.212-2.541c0.239,0,0.407,0.024,0.599,0.072v1.989c-0.215-0.048-0.431-0.071-0.719-0.071
		c-1.486,0-2.541,1.126-2.828,2.708c-0.049,0.288-0.096,0.624-0.096,0.983v6.185h-2.086V12.08z"/>
	<path fill="#FFFFFF" d="M140.203,17.905c0.623,0.407,1.725,0.839,2.78,0.839c1.534,0,2.253-0.768,2.253-1.726
		c0-1.007-0.6-1.559-2.157-2.134c-2.085-0.743-3.068-1.894-3.068-3.284c0-1.87,1.511-3.404,4.003-3.404
		c1.175,0,2.205,0.336,2.854,0.72l-0.527,1.534c-0.456-0.288-1.295-0.672-2.374-0.672c-1.246,0-1.941,0.72-1.941,1.582
		c0,0.959,0.695,1.391,2.205,1.966c2.014,0.768,3.044,1.774,3.044,3.5c0,2.038-1.582,3.476-4.338,3.476
		c-1.271,0-2.445-0.312-3.26-0.791L140.203,17.905z"/>
	<path fill="#FFFFFF" d="M149.982,3.043h2.109v7.239h0.048c0.336-0.6,0.863-1.127,1.511-1.486c0.623-0.359,1.366-0.6,2.157-0.6
		c1.558,0,4.051,0.959,4.051,4.963v6.903h-2.109v-6.664c0-1.87-0.695-3.452-2.685-3.452c-1.367,0-2.445,0.959-2.828,2.109
		c-0.121,0.288-0.145,0.6-0.145,1.007v7h-2.109V3.043z"/>
	<path fill="#FFFFFF" d="M165.634,5.2c0.023,0.719-0.504,1.294-1.343,1.294c-0.743,0-1.271-0.575-1.271-1.294
		c0-0.743,0.551-1.318,1.318-1.318C165.13,3.882,165.634,4.457,165.634,5.2z M163.285,20.062V8.46h2.109v11.603H163.285z"/>
	<path fill="#FFFFFF" d="M168.893,12.248c0-1.486-0.048-2.686-0.097-3.788h1.895l0.096,1.99h0.048
		c0.863-1.415,2.229-2.254,4.124-2.254c2.805,0,4.914,2.373,4.914,5.897c0,4.171-2.541,6.232-5.274,6.232
		c-1.534,0-2.876-0.671-3.571-1.822h-0.049v6.305h-2.085V12.248z M170.978,15.34c0,0.312,0.049,0.6,0.096,0.863
		c0.385,1.462,1.654,2.469,3.165,2.469c2.229,0,3.524-1.821,3.524-4.482c0-2.325-1.223-4.314-3.453-4.314
		c-1.438,0-2.78,1.03-3.188,2.612c-0.072,0.264-0.145,0.575-0.145,0.863V15.34z"/>
</g>
<g>
	<path fill="#FFFFFF" d="M55.5,29.49v5.188c0,1.963,0.871,2.795,2.041,2.795c1.3,0,2.132-0.857,2.132-2.795V29.49h1.145V34.6
		c0,2.691-1.417,3.796-3.315,3.796c-1.794,0-3.146-1.026-3.146-3.744V29.49H55.5z"/>
	<path fill="#FFFFFF" d="M62.743,33.664c0-0.65-0.013-1.184-0.052-1.703h1.014l0.065,1.04h0.026c0.312-0.599,1.04-1.184,2.08-1.184
		c0.871,0,2.223,0.521,2.223,2.679v3.757h-1.144v-3.627c0-1.015-0.377-1.859-1.456-1.859c-0.754,0-1.339,0.533-1.534,1.17
		c-0.052,0.144-0.078,0.338-0.078,0.533v3.783h-1.144V33.664z"/>
	<path fill="#FFFFFF" d="M71.232,30.192c0.013,0.391-0.273,0.702-0.728,0.702c-0.403,0-0.689-0.312-0.689-0.702
		c0-0.402,0.299-0.715,0.715-0.715C70.959,29.478,71.232,29.79,71.232,30.192z M69.958,38.253v-6.292h1.144v6.292H69.958z"/>
	<path fill="#FFFFFF" d="M73.443,31.961l1.235,3.536c0.208,0.572,0.377,1.092,0.507,1.611h0.039c0.143-0.52,0.325-1.039,0.533-1.611
		l1.222-3.536h1.196l-2.47,6.292h-1.092l-2.392-6.292H73.443z"/>
	<path fill="#FFFFFF" d="M79.892,35.314c0.026,1.548,1.014,2.185,2.158,2.185c0.819,0,1.313-0.144,1.742-0.325l0.195,0.819
		c-0.403,0.182-1.092,0.39-2.093,0.39c-1.938,0-3.094-1.274-3.094-3.172c0-1.898,1.118-3.394,2.951-3.394
		c2.054,0,2.6,1.808,2.6,2.965c0,0.233-0.026,0.416-0.039,0.532H79.892z M83.246,34.496c0.013-0.729-0.299-1.859-1.586-1.859
		c-1.157,0-1.664,1.066-1.755,1.859H83.246z"/>
	<path fill="#FFFFFF" d="M85.769,33.924c0-0.741-0.013-1.378-0.052-1.963h1.001l0.039,1.234h0.052
		c0.286-0.845,0.975-1.378,1.742-1.378c0.13,0,0.221,0.014,0.325,0.039v1.079c-0.117-0.025-0.234-0.039-0.39-0.039
		c-0.806,0-1.378,0.611-1.534,1.47c-0.026,0.155-0.052,0.338-0.052,0.532v3.354h-1.131V33.924z"/>
	<path fill="#FFFFFF" d="M89.864,37.083c0.338,0.221,0.936,0.455,1.508,0.455c0.832,0,1.222-0.416,1.222-0.937
		c0-0.546-0.325-0.845-1.17-1.157c-1.131-0.402-1.664-1.026-1.664-1.78c0-1.015,0.819-1.847,2.171-1.847
		c0.637,0,1.196,0.183,1.547,0.391l-0.286,0.832c-0.247-0.156-0.702-0.364-1.287-0.364c-0.676,0-1.053,0.39-1.053,0.858
		c0,0.52,0.377,0.754,1.196,1.065c1.092,0.416,1.651,0.962,1.651,1.898c0,1.104-0.858,1.885-2.353,1.885
		c-0.689,0-1.326-0.169-1.768-0.429L89.864,37.083z"/>
	<path fill="#FFFFFF" d="M96.443,30.192c0.013,0.391-0.273,0.702-0.728,0.702c-0.403,0-0.689-0.312-0.689-0.702
		c0-0.402,0.299-0.715,0.715-0.715C96.17,29.478,96.443,29.79,96.443,30.192z M95.169,38.253v-6.292h1.144v6.292H95.169z"/>
	<path fill="#FFFFFF" d="M99.589,30.153v1.808h1.638v0.871h-1.638v3.393c0,0.78,0.221,1.223,0.857,1.223
		c0.299,0,0.52-0.039,0.663-0.078l0.052,0.857c-0.221,0.092-0.572,0.156-1.014,0.156c-0.533,0-0.962-0.169-1.235-0.48
		c-0.325-0.339-0.442-0.897-0.442-1.639v-3.432h-0.975v-0.871h0.975v-1.509L99.589,30.153z"/>
	<path fill="#FFFFFF" d="M102.931,31.961l1.377,3.718c0.144,0.416,0.299,0.91,0.403,1.287h0.026
		c0.117-0.377,0.246-0.858,0.402-1.312l1.248-3.692h1.209l-1.716,4.485c-0.819,2.157-1.378,3.263-2.157,3.938
		c-0.56,0.494-1.119,0.689-1.404,0.741l-0.286-0.962c0.286-0.091,0.663-0.273,1.001-0.56c0.312-0.246,0.701-0.688,0.962-1.273
		c0.052-0.117,0.091-0.208,0.091-0.273c0-0.064-0.025-0.155-0.078-0.299l-2.326-5.798H102.931z"/>
	<path fill="#FFFFFF" d="M117.088,35.055c0,2.327-1.612,3.341-3.133,3.341c-1.703,0-3.017-1.248-3.017-3.236
		c0-2.106,1.379-3.342,3.121-3.342C115.867,31.817,117.088,33.131,117.088,35.055z M112.096,35.12c0,1.378,0.793,2.418,1.911,2.418
		c1.092,0,1.911-1.027,1.911-2.444c0-1.066-0.533-2.418-1.885-2.418C112.681,32.676,112.096,33.924,112.096,35.12z"/>
	<path fill="#FFFFFF" d="M118.65,38.253v-5.421h-0.885v-0.871h0.885v-0.299c0-0.885,0.195-1.69,0.728-2.197
		c0.429-0.416,1.001-0.585,1.534-0.585c0.402,0,0.754,0.091,0.975,0.182l-0.156,0.884c-0.168-0.078-0.402-0.143-0.728-0.143
		c-0.975,0-1.222,0.858-1.222,1.82v0.338h1.521v0.871h-1.521v5.421H118.65z"/>
	<path fill="#FFFFFF" d="M131.248,37.967c-0.416,0.208-1.248,0.416-2.314,0.416c-2.47,0-4.329-1.56-4.329-4.433
		c0-2.743,1.859-4.603,4.576-4.603c1.093,0,1.781,0.234,2.08,0.39l-0.272,0.924c-0.43-0.209-1.041-0.364-1.769-0.364
		c-2.054,0-3.419,1.312-3.419,3.614c0,2.145,1.234,3.522,3.367,3.522c0.689,0,1.391-0.143,1.846-0.363L131.248,37.967z"/>
	<path fill="#FFFFFF" d="M136.111,38.253l-0.092-0.793h-0.039c-0.351,0.494-1.026,0.936-1.924,0.936
		c-1.273,0-1.924-0.896-1.924-1.807c0-1.521,1.352-2.354,3.783-2.34v-0.13c0-0.521-0.143-1.456-1.43-1.456
		c-0.586,0-1.196,0.182-1.639,0.468l-0.26-0.754c0.52-0.338,1.273-0.56,2.066-0.56c1.925,0,2.393,1.313,2.393,2.574v2.354
		c0,0.546,0.025,1.079,0.104,1.508H136.111z M135.941,35.042c-1.248-0.026-2.664,0.195-2.664,1.417c0,0.741,0.494,1.092,1.078,1.092
		c0.819,0,1.34-0.52,1.521-1.053c0.039-0.117,0.064-0.247,0.064-0.364V35.042z"/>
	<path fill="#FFFFFF" d="M138.893,29.022h1.144v9.23h-1.144V29.022z"/>
	<path fill="#FFFFFF" d="M143.236,30.192c0.013,0.391-0.273,0.702-0.729,0.702c-0.403,0-0.689-0.312-0.689-0.702
		c0-0.402,0.299-0.715,0.715-0.715C142.962,29.478,143.236,29.79,143.236,30.192z M141.961,38.253v-6.292h1.144v6.292H141.961z"/>
	<path fill="#FFFFFF" d="M145.121,38.253v-5.421h-0.884v-0.871h0.884v-0.299c0-0.885,0.195-1.69,0.729-2.197
		c0.429-0.416,1-0.585,1.533-0.585c0.403,0,0.754,0.091,0.976,0.182l-0.156,0.884c-0.169-0.078-0.403-0.143-0.728-0.143
		c-0.976,0-1.223,0.858-1.223,1.82v0.338h1.521v0.871h-1.521v5.421H145.121z"/>
	<path fill="#FFFFFF" d="M154.494,35.055c0,2.327-1.611,3.341-3.133,3.341c-1.703,0-3.016-1.248-3.016-3.236
		c0-2.106,1.378-3.342,3.12-3.342C153.273,31.817,154.494,33.131,154.494,35.055z M149.501,35.12c0,1.378,0.794,2.418,1.912,2.418
		c1.092,0,1.91-1.027,1.91-2.444c0-1.066-0.532-2.418-1.885-2.418C150.087,32.676,149.501,33.924,149.501,35.12z"/>
	<path fill="#FFFFFF" d="M155.939,33.924c0-0.741-0.014-1.378-0.053-1.963h1.001l0.039,1.234h0.052
		c0.286-0.845,0.976-1.378,1.742-1.378c0.131,0,0.221,0.014,0.325,0.039v1.079c-0.117-0.025-0.233-0.039-0.39-0.039
		c-0.807,0-1.379,0.611-1.534,1.47c-0.026,0.155-0.052,0.338-0.052,0.532v3.354h-1.131V33.924z"/>
	<path fill="#FFFFFF" d="M160.19,33.664c0-0.65-0.013-1.184-0.052-1.703h1.014l0.064,1.04h0.026c0.312-0.599,1.04-1.184,2.08-1.184
		c0.871,0,2.224,0.521,2.224,2.679v3.757h-1.145v-3.627c0-1.015-0.377-1.859-1.456-1.859c-0.754,0-1.339,0.533-1.534,1.17
		c-0.052,0.144-0.078,0.338-0.078,0.533v3.783h-1.144V33.664z"/>
	<path fill="#FFFFFF" d="M168.679,30.192c0.014,0.391-0.272,0.702-0.728,0.702c-0.403,0-0.688-0.312-0.688-0.702
		c0-0.402,0.299-0.715,0.715-0.715C168.407,29.478,168.679,29.79,168.679,30.192z M167.406,38.253v-6.292h1.145v6.292H167.406z"/>
	<path fill="#FFFFFF" d="M173.932,38.253l-0.091-0.793h-0.039c-0.352,0.494-1.027,0.936-1.924,0.936
		c-1.274,0-1.924-0.896-1.924-1.807c0-1.521,1.352-2.354,3.783-2.34v-0.13c0-0.521-0.144-1.456-1.431-1.456
		c-0.585,0-1.196,0.182-1.638,0.468l-0.26-0.754c0.52-0.338,1.273-0.56,2.066-0.56c1.924,0,2.393,1.313,2.393,2.574v2.354
		c0,0.546,0.025,1.079,0.104,1.508H173.932z M173.763,35.042c-1.248-0.026-2.665,0.195-2.665,1.417c0,0.741,0.494,1.092,1.079,1.092
		c0.818,0,1.339-0.52,1.521-1.053c0.039-0.117,0.064-0.247,0.064-0.364V35.042z"/>
</g>
<g>
</g>
<g>
</g>
<g>
</g>
<g>
</g>
<g>
</g>
<g>
</g>
<g>
</g>
<g>
</g>
<g>
</g>
<g>
</g>
<g>
</g>
<g>
</g>
<g>
</g>
<g>
</g>
<g>
</g>
</svg>
