<?xml version="1.0" encoding="utf-8"?>
<!-- Generator: Adobe Illustrator 16.0.0, SVG Export Plug-In . SVG Version: 6.00 Build 0)  -->
<!DOCTYPE svg PUBLIC "-//W3C//DTD SVG 1.1//EN" "http://www.w3.org/Graphics/SVG/1.1/DTD/svg11.dtd">
<svg version="1.1" id="Layer_1" xmlns="http://www.w3.org/2000/svg" xmlns:xlink="http://www.w3.org/1999/xlink" x="0px" y="0px"
	 width="27.326px" height="27.326px" viewBox="0 0 27.326 27.326" enable-background="new 0 0 27.326 27.326" xml:space="preserve">
<path fill="#4C4C4C" d="M22.274,8.322c-0.633,0.279-1.312,0.471-2.03,0.555c0.732-0.438,1.289-1.129,1.554-1.953
	c-0.684,0.404-1.438,0.697-2.242,0.856c-0.645-0.686-1.563-1.115-2.58-1.115c-1.95,0-3.532,1.582-3.532,3.534
	c0,0.275,0.031,0.544,0.092,0.804c-2.937-0.147-5.54-1.554-7.284-3.693C5.946,7.832,5.771,8.439,5.771,9.086
	c0,1.226,0.625,2.308,1.572,2.941c-0.579-0.016-1.123-0.178-1.602-0.44v0.045c0,1.711,1.219,3.139,2.836,3.462
	c-0.297,0.082-0.608,0.125-0.93,0.125c-0.23,0-0.45-0.021-0.666-0.063c0.45,1.404,1.755,2.423,3.3,2.454
	c-1.209,0.945-2.732,1.514-4.387,1.514c-0.286,0-0.567-0.016-0.844-0.05c1.562,1.003,3.422,1.587,5.418,1.587
	c6.496,0,10.052-5.384,10.052-10.053c0-0.153-0.002-0.308-0.009-0.458C21.201,9.653,21.802,9.03,22.274,8.322"/>
<path fill="#4C4C4C" d="M13.663,0.405c7.322,0,13.258,5.936,13.258,13.258c0,7.322-5.936,13.258-13.258,13.258
	S0.405,20.985,0.405,13.663C0.405,6.341,6.341,0.405,13.663,0.405 M13.663,0C6.129,0,0,6.129,0,13.663
	c0,7.534,6.129,13.663,13.663,13.663s13.663-6.129,13.663-13.663C27.326,6.129,21.197,0,13.663,0"/>
<g>
</g>
<g>
</g>
<g>
</g>
<g>
</g>
<g>
</g>
<g>
</g>
<g>
</g>
<g>
</g>
<g>
</g>
<g>
</g>
<g>
</g>
<g>
</g>
<g>
</g>
<g>
</g>
<g>
</g>
</svg>
