<?xml version="1.0" encoding="utf-8"?>
<!-- Generator: Adobe Illustrator 16.0.0, SVG Export Plug-In . SVG Version: 6.00 Build 0)  -->
<!DOCTYPE svg PUBLIC "-//W3C//DTD SVG 1.1//EN" "http://www.w3.org/Graphics/SVG/1.1/DTD/svg11.dtd">
<svg version="1.1" id="Layer_1" xmlns="http://www.w3.org/2000/svg" xmlns:xlink="http://www.w3.org/1999/xlink" x="0px" y="0px"
	 width="27.325px" height="27.326px" viewBox="0 0 27.325 27.326" enable-background="new 0 0 27.325 27.326" xml:space="preserve">
<path fill="#4C4C4C" d="M13.663,0.405c7.321,0,13.258,5.936,13.258,13.258c0,7.322-5.937,13.258-13.258,13.258
	c-7.322,0-13.259-5.936-13.259-13.258C0.404,6.341,6.341,0.405,13.663,0.405 M13.663,0C6.129,0,0,6.129,0,13.663
	c0,7.534,6.129,13.663,13.663,13.663c7.533,0,13.662-6.129,13.662-13.663C27.325,6.129,21.196,0,13.663,0"/>
<path fill="#4C4C4C" d="M21.578,20.827c0.015,0.201-0.053,0.379-0.203,0.528c-0.135,0.149-0.307,0.224-0.517,0.224H19.25
	c-0.194,0-0.362-0.064-0.5-0.195c-0.139-0.133-0.212-0.291-0.22-0.479c-0.09-1.611-0.468-3.143-1.135-4.594
	c-0.668-1.451-1.535-2.71-2.604-3.778c-1.067-1.069-2.327-1.936-3.778-2.604C9.562,9.263,8.031,8.88,6.419,8.783
	c-0.187-0.007-0.347-0.08-0.478-0.219C5.811,8.425,5.745,8.262,5.745,8.075V6.467c0-0.21,0.074-0.382,0.224-0.519
	C6.104,5.814,6.27,5.747,6.464,5.747h0.034c1.964,0.098,3.844,0.547,5.64,1.349c1.796,0.803,3.391,1.905,4.784,3.307
	c1.402,1.394,2.504,2.989,3.307,4.784C21.03,16.982,21.48,18.862,21.578,20.827 M15.82,20.804c0.015,0.21-0.049,0.39-0.191,0.54
	c-0.135,0.157-0.311,0.235-0.527,0.235h-1.52c-0.187,0-0.348-0.061-0.482-0.185c-0.136-0.124-0.21-0.278-0.226-0.467
	c-0.165-1.718-0.856-3.185-2.075-4.402c-1.218-1.219-2.686-1.909-4.401-2.075c-0.188-0.015-0.344-0.09-0.467-0.225
	c-0.124-0.135-0.186-0.296-0.186-0.484v-1.518c0-0.217,0.078-0.393,0.236-0.528c0.127-0.128,0.288-0.191,0.482-0.191h0.058
	c1.198,0.097,2.346,0.399,3.44,0.905c1.095,0.506,2.065,1.186,2.912,2.041c0.855,0.847,1.535,1.818,2.041,2.912
	C15.421,18.458,15.724,19.604,15.82,20.804 M9.434,17.892c0.42,0.42,0.63,0.93,0.63,1.529s-0.21,1.109-0.63,1.529
	c-0.421,0.42-0.931,0.629-1.529,0.629c-0.601,0-1.11-0.209-1.53-0.629s-0.629-0.93-0.629-1.529s0.209-1.109,0.629-1.529
	s0.93-0.63,1.53-0.63C8.503,17.262,9.013,17.472,9.434,17.892"/>
<g>
</g>
<g>
</g>
<g>
</g>
<g>
</g>
<g>
</g>
<g>
</g>
<g>
</g>
<g>
</g>
<g>
</g>
<g>
</g>
<g>
</g>
<g>
</g>
<g>
</g>
<g>
</g>
<g>
</g>
</svg>
