<?xml version="1.0" encoding="utf-8"?>
<!-- Generator: Adobe Illustrator 16.0.0, SVG Export Plug-In . SVG Version: 6.00 Build 0)  -->
<!DOCTYPE svg PUBLIC "-//W3C//DTD SVG 1.1//EN" "http://www.w3.org/Graphics/SVG/1.1/DTD/svg11.dtd">
<svg version="1.1" id="Layer_1" xmlns="http://www.w3.org/2000/svg" xmlns:xlink="http://www.w3.org/1999/xlink" x="0px" y="0px"
	 width="33.735px" height="33.736px" viewBox="0 0 33.735 33.736" enable-background="new 0 0 33.735 33.736" xml:space="preserve">
<path fill="#FFFFFF" d="M27.499,10.274c-0.781,0.345-1.62,0.582-2.506,0.686c0.903-0.54,1.592-1.395,1.919-2.411
	c-0.845,0.499-1.777,0.86-2.769,1.058c-0.797-0.848-1.931-1.378-3.187-1.378c-2.407,0-4.36,1.953-4.36,4.364
	c0,0.339,0.038,0.671,0.113,0.992c-3.625-0.183-6.84-1.918-8.992-4.56C7.341,9.67,7.124,10.42,7.124,11.218
	c0,1.513,0.773,2.85,1.942,3.631c-0.716-0.021-1.387-0.22-1.977-0.544v0.056c0,2.112,1.504,3.876,3.5,4.276
	c-0.367,0.1-0.752,0.153-1.147,0.153c-0.284,0-0.557-0.025-0.822-0.077c0.556,1.731,2.167,2.989,4.074,3.028
	c-1.493,1.168-3.374,1.869-5.416,1.869c-0.354,0-0.701-0.02-1.042-0.062c1.93,1.237,4.224,1.959,6.688,1.959
	c8.021,0,12.41-6.646,12.41-12.411c0-0.189-0.003-0.38-0.012-0.565C26.174,11.918,26.914,11.148,27.499,10.274"/>
<path fill="#EAE9E9" d="M16.868,0.5c9.039,0,16.367,7.328,16.367,16.368c0,9.039-7.328,16.368-16.367,16.368
	C7.827,33.236,0.5,25.907,0.5,16.868C0.5,7.828,7.827,0.5,16.868,0.5 M16.868,0C7.566,0,0,7.567,0,16.868
	c0,9.302,7.566,16.868,16.868,16.868c9.301,0,16.867-7.566,16.867-16.868C33.735,7.567,26.169,0,16.868,0"/>
<g>
</g>
<g>
</g>
<g>
</g>
<g>
</g>
<g>
</g>
<g>
</g>
<g>
</g>
<g>
</g>
<g>
</g>
<g>
</g>
<g>
</g>
<g>
</g>
<g>
</g>
<g>
</g>
<g>
</g>
</svg>
